<?xml version="1.0" encoding="utf-8"?>
<!-- Generator: Adobe Illustrator 22.0.1, SVG Export Plug-In . SVG Version: 6.00 Build 0)  -->
<svg version="1.1" id="圖層_3" xmlns="http://www.w3.org/2000/svg" xmlns:xlink="http://www.w3.org/1999/xlink" x="0px" y="0px"
	 viewBox="0 0 120 80" style="enable-background:new 0 0 120 80;" xml:space="preserve">
<style type="text/css">
	.st0{fill:none;stroke:#B6C1C4;stroke-width:2.5;stroke-linecap:round;stroke-linejoin:round;stroke-miterlimit:10;}
</style>
<g>
	<path class="st0" d="M105,18c0,0.1-0.1,0.1-0.1,0.2C92.1,30.4,79,41.3,63.6,50.2c-2.2,1.2-4.8,1.2-7,0
		c-15.4-8.5-28.7-19.8-41.3-31.9c-0.1-0.1-0.1-0.1-0.1-0.2c-0.1-0.2,0-0.4,0.1-0.4c14.7,0,28.1-3.6,41.9-8.2c1.8-0.7,3.9-0.7,5.7,0
		c13.8,4.6,27.2,8.2,41.9,8.1C105.1,17.6,105.1,17.8,105,18z"/>
	<path id="XMLID_3_" class="st0" d="M105.4,37c0,0.1-0.1,0.2-0.1,0.4C92.6,49.7,79.5,60.8,64.2,69.9c-2.5,1.5-5.6,1.5-8.2,0
		c-15.5-8.8-28.8-20.3-41.4-32.7c0-0.1-0.1-0.2-0.1-0.4c-2-7.2-1.4-13.4,0.7-18.8c0,0.1,0.1,0.1,0.1,0.2
		C28,30.3,41.2,41.6,56.6,50.1c2.2,1.2,4.8,1.2,7,0c15.4-8.9,28.5-19.8,41.3-32C105,18,105,18,105,17.9
		C107.1,23.4,107.4,29.7,105.4,37z"/>
	<path class="st0" d="M15.2,17.9c0,0.1,0,0.1-0.1,0.2"/>
	<g>
		<g>
			<path class="st0" d="M33.5,24.2c0,0,4.8-1,5.5,4.7"/>
			<path class="st0" d="M44.6,26.4c0,0-4.9-2.9-5.6,2.5"/>
			<path class="st0" d="M39,28.2c0-1.8,0-2.7,0-4.5"/>
		</g>
		<g>
			<path class="st0" d="M55.9,17.1c0,0,4.9-2,5.6,3.5"/>
			<path class="st0" d="M67.2,16.9c0,0-4.9-1.9-5.6,3.7"/>
			<path class="st0" d="M61.5,19.9c0-1.8,0-2.7,0-4.5"/>
		</g>
		<g>
			<path class="st0" d="M52.3,35.5c0,0,4.9-1.8,5.6,3.7"/>
			<path class="st0" d="M63.6,35.7c0,0-4.9-2-5.6,3.5"/>
			<path class="st0" d="M58,38.5c0-1.8,0-2.7,0-4.5"/>
		</g>
		<g>
			<path class="st0" d="M74.9,24.4c0,0,4.9-2.8,5.6,2.5"/>
			<path class="st0" d="M86,22.3c0,0-4.9-1-5.5,4.6"/>
			<path class="st0" d="M80.5,26.2c0-1.8,0-2.7,0-4.5"/>
		</g>
	</g>
</g>
</svg>
