<?xml version="1.0" encoding="utf-8"?>
<!-- Generator: Adobe Illustrator 22.0.1, SVG Export Plug-In . SVG Version: 6.00 Build 0)  -->
<svg version="1.1" id="圖層_5" xmlns="http://www.w3.org/2000/svg" xmlns:xlink="http://www.w3.org/1999/xlink" x="0px" y="0px"
	 viewBox="0 0 120 80" style="enable-background:new 0 0 120 80;" xml:space="preserve">
<style type="text/css">
	.st0{fill:none;stroke:#B6C1C4;stroke-width:2.5;stroke-linecap:round;stroke-linejoin:round;stroke-miterlimit:10;}
</style>
<g>
	<g>
		<g>
			<path class="st0" d="M114.3,48.3C114.3,48.4,114.3,48.4,114.3,48.3L89.8,61.7c-1.3,0.7-2.8,0.7-4,0L61.3,48.4c0,0-0.1,0-0.1-0.1
				c-0.1-0.1,0-0.2,0.1-0.3l24.8-10.5c1.1-0.4,2.2-0.4,3.3,0L114.2,48C114.3,48.1,114.4,48.2,114.3,48.3z"/>
			<path class="st0" d="M114.5,59.7l-0.1,0.2L90.1,73.4c-1.5,0.8-3.3,0.8-4.7,0L60.8,59.8l-0.1-0.2c-1.3-3.7-0.9-7.6,0.4-11.3
				c0,0,0,0,0.1,0.1l24.5,13.3c1.3,0.7,2.8,0.7,4,0l24.5-13.3c0,0,0.1,0,0.1-0.1C115.6,52.1,115.8,55.9,114.5,59.7z"/>
			<g>
				<g>
					<path class="st0" d="M72.2,48.2c0,0,2.9-1.2,3.3,2"/>
					<path class="st0" d="M78.8,48.2c0,0-2.9-1.2-3.3,2"/>
					<line class="st0" x1="75.5" y1="49.9" x2="75.5" y2="47.2"/>
				</g>
				<g>
					<path class="st0" d="M85.3,42.1c0,0,2.9-1.2,3.3,2"/>
					<path class="st0" d="M91.8,42.1c0,0-2.9-1.2-3.3,2"/>
					<line class="st0" x1="88.6" y1="43.7" x2="88.6" y2="41.1"/>
				</g>
				<g>
					<path class="st0" d="M83.3,53.1c0,0,2.9-1.2,3.3,2"/>
					<path class="st0" d="M89.8,53.1c0,0-2.9-1.2-3.3,2"/>
					<line class="st0" x1="86.5" y1="54.7" x2="86.5" y2="52.1"/>
				</g>
				<g>
					<path class="st0" d="M96.3,47c0,0,2.9-1.2,3.3,2"/>
					<path class="st0" d="M102.8,47c0,0-2.9-1.2-3.3,2"/>
					<line class="st0" x1="99.6" y1="48.6" x2="99.6" y2="46"/>
				</g>
			</g>
		</g>
		<g>
			<path class="st0" d="M52.5,49.6c0,0.1,0,0.1,0,0.2c-0.3,6-10.9,10.9-23.9,10.9s-23.7-4.9-24-10.9c0-0.1,0-0.1,0-0.2
				c0-6.1,10.7-11.1,23.9-11.1S52.5,43.4,52.5,49.6z"/>
			<g>
				<path class="st0" d="M52.5,49.8v12c0,6.1-10.7,11.1-23.9,11.1s-23.9-5-23.9-11.1v-12l0,0c0.3,6,10.9,10.9,23.9,10.9
					S52.2,55.8,52.5,49.8L52.5,49.8z"/>
			</g>
			<g>
				<g>
					<path class="st0" d="M14.1,49.7c0,0,2.7-1.2,3.1,1.9"/>
					<path class="st0" d="M20.3,49.7c0,0-2.7-1.2-3.1,1.9"/>
					<line class="st0" x1="17.2" y1="51.2" x2="17.2" y2="48.7"/>
				</g>
				<g>
					<path class="st0" d="M26.4,43.9c0,0,2.7-1.2,3.1,1.9"/>
					<path class="st0" d="M32.6,43.9c0,0-2.7-1.2-3.1,1.9"/>
					<line class="st0" x1="29.5" y1="45.4" x2="29.5" y2="42.9"/>
				</g>
				<g>
					<path class="st0" d="M24.5,54.3c0,0,2.7-1.2,3.1,1.9"/>
					<path class="st0" d="M30.7,54.3c0,0-2.7-1.2-3.1,1.9"/>
					<line class="st0" x1="27.6" y1="55.8" x2="27.6" y2="53.3"/>
				</g>
				<g>
					<path class="st0" d="M36.8,48.5c0,0,2.7-1.2,3.1,1.9"/>
					<path class="st0" d="M43,48.5c0,0-2.7-1.2-3.1,1.9"/>
					<line class="st0" x1="39.9" y1="50" x2="39.9" y2="47.5"/>
				</g>
			</g>
		</g>
	</g>
	<g>
		<path class="st0" d="M76.6,26.6l-20.1,0.2L36.4,27c-1.3,0-2.2-1.2-1.9-2.3c0.1-0.4,0.3-0.8,0.6-1.1l8.6-7.4L55,6.4
			c0.7-0.6,1.8-0.6,2.5,0L69.1,16l8.7,7.2c0.4,0.4,0.7,0.8,0.7,1.3C78.6,25.5,77.8,26.6,76.6,26.6z"/>
		<path class="st0" d="M75.7,34.6L75.7,34.6l-20.2,0.2l-20,0.2c-3.2-1.8-1.2-10.3-1.2-10.3h0.1c-0.2,1.1,0.6,2.3,2,2.3l20.1-0.2
			l20.1-0.2c1.3,0,2-1.1,1.9-2.2h0.1C78.5,24.4,79.3,33.5,75.7,34.6z"/>
		<g>
			<g>
				<path class="st0" d="M53.3,12.8c0,0,3.2-1,3.2,2.6"/>
				<path class="st0" d="M60.2,13.6c0,0-2.9-1.6-3.7,1.8"/>
				<line class="st0" x1="56.5" y1="14.9" x2="56.9" y2="12.1"/>
			</g>
			<g>
				<path class="st0" d="M44.4,20.3c0,0,3.2-1,3.2,2.6"/>
				<path class="st0" d="M51.3,21.1c0,0-2.9-1.6-3.7,1.8"/>
				<line class="st0" x1="47.7" y1="22.4" x2="48" y2="19.6"/>
			</g>
			<g>
				<path class="st0" d="M60.2,20.9c0,0,3.2-1,3.2,2.6"/>
				<path class="st0" d="M67.1,21.7c0,0-2.9-1.6-3.7,1.8"/>
				<line class="st0" x1="63.5" y1="23" x2="63.8" y2="20.2"/>
			</g>
		</g>
	</g>
</g>
</svg>
