<?xml version="1.0" encoding="utf-8"?>
<!-- Generator: Adobe Illustrator 22.0.1, SVG Export Plug-In . SVG Version: 6.00 Build 0)  -->
<svg version="1.1" id="圖層_7" xmlns="http://www.w3.org/2000/svg" xmlns:xlink="http://www.w3.org/1999/xlink" x="0px" y="0px"
	 viewBox="0 0 120 80" style="enable-background:new 0 0 120 80;" xml:space="preserve">
<style type="text/css">
	.st0{fill:none;stroke:#30526B;stroke-width:2.5769;stroke-linecap:round;stroke-linejoin:round;stroke-miterlimit:10;}
</style>
<g>
	<g>
		<path class="st0" d="M95,50.7h22.2H95z"/>
		<rect x="94.7" y="42.4" class="st0" width="22.8" height="16.7"/>
		<line class="st0" x1="94.7" y1="50.7" x2="117.4" y2="50.7"/>
		<g>
			<rect x="97" y="59" class="st0" width="1.8" height="2.1"/>
			<rect x="113.3" y="59" class="st0" width="1.8" height="2.1"/>
		</g>
		<line class="st0" x1="104" y1="46.7" x2="108.1" y2="46.7"/>
		<line class="st0" x1="104" y1="54.5" x2="108.1" y2="54.5"/>
	</g>
	<g>
		<rect x="2.6" y="18.8" class="st0" width="31.6" height="41.9"/>
		<line class="st0" x1="18.3" y1="18.8" x2="18.3" y2="60.4"/>
		<line class="st0" x1="16.7" y1="42.3" x2="16.7" y2="38.1"/>
		<line class="st0" x1="20" y1="42.3" x2="20" y2="38.1"/>
	</g>
	<g>
		<rect x="35.5" y="48.6" class="st0" width="57.8" height="12.3"/>
		<polygon class="st0" points="93.3,48.6 35.5,48.6 42.9,33.1 85.9,33.1 		"/>
		<rect x="42.9" y="20.8" class="st0" width="43" height="12.3"/>
		<line class="st0" x1="64.4" y1="33.1" x2="64.4" y2="60.9"/>
	</g>
</g>
</svg>
