<?xml version="1.0" encoding="utf-8"?>
<!-- Generator: Adobe Illustrator 22.0.1, SVG Export Plug-In . SVG Version: 6.00 Build 0)  -->
<svg version="1.1" id="圖層_4" xmlns="http://www.w3.org/2000/svg" xmlns:xlink="http://www.w3.org/1999/xlink" x="0px" y="0px"
	 viewBox="0 0 120 80" style="enable-background:new 0 0 120 80;" xml:space="preserve">
<style type="text/css">
	.st0{fill:#FFFFFF;stroke:#30526B;stroke-width:2.5;stroke-linecap:round;stroke-linejoin:round;stroke-miterlimit:10;}
	.st1{clip-path:url(#SVGID_2_);fill:none;stroke:#30526B;stroke-miterlimit:10;}
	.st2{clip-path:url(#SVGID_4_);fill:none;stroke:#30526B;stroke-miterlimit:10;}
	.st3{fill:none;stroke:#30526B;stroke-width:0.5;stroke-miterlimit:10;}
</style>
<g>
	<g>
		<path class="st0" d="M105.4,54.3H80.6c-5.5,0-9.9-4.4-9.9-9.9V19.5c0-5.5,4.4-9.9,9.9-9.9h24.8c5.5,0,9.9,4.4,9.9,9.9v24.8
			C115.4,49.8,110.9,54.3,105.4,54.3z"/>
		<g>
			<defs>
				<path id="SVGID_1_" d="M105.4,54.3H80.6c-5.5,0-9.9-4.4-9.9-9.9V19.5c0-5.5,4.4-9.9,9.9-9.9h24.8c5.5,0,9.9,4.4,9.9,9.9v24.8
					C115.4,49.8,110.9,54.3,105.4,54.3z"/>
			</defs>
			<clipPath id="SVGID_2_">
				<use xlink:href="#SVGID_1_"  style="overflow:visible;"/>
			</clipPath>
			<line class="st1" x1="77.7" y1="6.8" x2="77.7" y2="57.1"/>
			<line class="st1" x1="85.2" y1="6.8" x2="85.2" y2="57.1"/>
			<line class="st1" x1="92.7" y1="6.8" x2="92.7" y2="57.1"/>
			<line class="st1" x1="100.2" y1="6.8" x2="100.2" y2="57.1"/>
			<line class="st1" x1="107.7" y1="6.8" x2="107.7" y2="57.1"/>
			<line class="st1" x1="67.6" y1="46.9" x2="117.8" y2="46.9"/>
			<line class="st1" x1="67.6" y1="39.4" x2="117.8" y2="39.4"/>
			<line class="st1" x1="67.6" y1="31.9" x2="117.8" y2="31.9"/>
			<line class="st1" x1="67.6" y1="24.4" x2="117.8" y2="24.4"/>
			<line class="st1" x1="67.6" y1="16.9" x2="117.8" y2="16.9"/>
		</g>
	</g>
	<g>
		<path class="st0" d="M70.5,61.3H45.7c-5.5,0-9.9-4.4-9.9-9.9V26.6c0-5.5,4.4-9.9,9.9-9.9h24.8c5.5,0,9.9,4.4,9.9,9.9v24.8
			C80.5,56.9,76,61.3,70.5,61.3z"/>
		<g>
			<defs>
				<path id="SVGID_3_" d="M70.5,62.3H45.7c-5.5,0-9.9-4.4-9.9-9.9V27.6c0-5.5,4.4-9.9,9.9-9.9h24.8c5.5,0,9.9,4.4,9.9,9.9v24.8
					C80.5,57.9,76,62.3,70.5,62.3z"/>
			</defs>
			<clipPath id="SVGID_4_">
				<use xlink:href="#SVGID_3_"  style="overflow:visible;"/>
			</clipPath>
			<line class="st2" x1="64.7" y1="1.8" x2="21.2" y2="45.3"/>
			<line class="st2" x1="68.3" y1="5.4" x2="24.8" y2="48.9"/>
			<line class="st2" x1="71.9" y1="9" x2="28.4" y2="52.5"/>
			<line class="st2" x1="75.5" y1="12.6" x2="32" y2="56.1"/>
			<line class="st2" x1="79.1" y1="16.2" x2="35.6" y2="59.7"/>
			<line class="st2" x1="82.7" y1="19.8" x2="39.2" y2="63.3"/>
			<line class="st2" x1="86.3" y1="23.4" x2="42.8" y2="66.9"/>
			<line class="st2" x1="89.9" y1="27" x2="46.4" y2="70.5"/>
			<line class="st2" x1="93.5" y1="30.6" x2="50" y2="74.1"/>
			<line class="st2" x1="97.1" y1="34.2" x2="53.6" y2="77.7"/>
		</g>
	</g>
	<g>
		<path class="st0" d="M39.9,68.4H15.1c-5.5,0-9.9-4.4-9.9-9.9V33.7c0-5.5,4.4-9.9,9.9-9.9h24.8c5.5,0,9.9,4.4,9.9,9.9v24.8
			C49.9,64,45.4,68.4,39.9,68.4z"/>
		<g>
			<path class="st3" d="M13.3,34.5c-0.7,0-1.2-0.5-1.2-1.2c0-0.7,0.5-1.2,1.2-1.2s1.2,0.5,1.2,1.2C14.6,34,14,34.5,13.3,34.5z
				 M13.3,32.3c-0.6,0-1,0.5-1,1c0,0.6,0.5,1,1,1s1-0.5,1-1C14.4,32.7,13.9,32.3,13.3,32.3z"/>
			<path class="st3" d="M20.4,34.5c-0.7,0-1.2-0.5-1.2-1.2c0-0.7,0.5-1.2,1.2-1.2c0.7,0,1.2,0.5,1.2,1.2
				C21.7,34,21.1,34.5,20.4,34.5z M20.4,32.3c-0.6,0-1,0.5-1,1c0,0.6,0.5,1,1,1c0.6,0,1-0.5,1-1C21.4,32.7,21,32.3,20.4,32.3z"/>
			<path class="st3" d="M27.5,34.5c-0.7,0-1.2-0.5-1.2-1.2c0-0.7,0.5-1.2,1.2-1.2s1.2,0.5,1.2,1.2C28.8,34,28.2,34.5,27.5,34.5z
				 M27.5,32.3c-0.6,0-1,0.5-1,1c0,0.6,0.5,1,1,1s1-0.5,1-1C28.5,32.7,28.1,32.3,27.5,32.3z"/>
			<path class="st3" d="M34.6,34.5c-0.7,0-1.2-0.5-1.2-1.2c0-0.7,0.5-1.2,1.2-1.2s1.2,0.5,1.2,1.2C35.8,34,35.3,34.5,34.6,34.5z
				 M34.6,32.3c-0.6,0-1,0.5-1,1c0,0.6,0.5,1,1,1s1-0.5,1-1C35.6,32.7,35.2,32.3,34.6,32.3z"/>
			<path class="st3" d="M41.7,34.5c-0.7,0-1.2-0.5-1.2-1.2c0-0.7,0.5-1.2,1.2-1.2c0.7,0,1.2,0.5,1.2,1.2
				C42.9,34,42.4,34.5,41.7,34.5z M41.7,32.3c-0.6,0-1,0.5-1,1c0,0.6,0.5,1,1,1c0.6,0,1-0.5,1-1C42.7,32.7,42.3,32.3,41.7,32.3z"/>
		</g>
		<g>
			<path class="st3" d="M13.3,40.9c-0.7,0-1.2-0.5-1.2-1.2c0-0.7,0.5-1.2,1.2-1.2s1.2,0.5,1.2,1.2C14.6,40.4,14,40.9,13.3,40.9z
				 M13.3,38.7c-0.6,0-1,0.5-1,1c0,0.6,0.5,1,1,1s1-0.5,1-1C14.4,39.1,13.9,38.7,13.3,38.7z"/>
			<path class="st3" d="M20.4,40.9c-0.7,0-1.2-0.5-1.2-1.2c0-0.7,0.5-1.2,1.2-1.2c0.7,0,1.2,0.5,1.2,1.2
				C21.7,40.4,21.1,40.9,20.4,40.9z M20.4,38.7c-0.6,0-1,0.5-1,1c0,0.6,0.5,1,1,1c0.6,0,1-0.5,1-1C21.4,39.1,21,38.7,20.4,38.7z"/>
			<path class="st3" d="M27.5,40.9c-0.7,0-1.2-0.5-1.2-1.2c0-0.7,0.5-1.2,1.2-1.2s1.2,0.5,1.2,1.2C28.8,40.4,28.2,40.9,27.5,40.9z
				 M27.5,38.7c-0.6,0-1,0.5-1,1c0,0.6,0.5,1,1,1s1-0.5,1-1C28.5,39.1,28.1,38.7,27.5,38.7z"/>
			<path class="st3" d="M34.6,40.9c-0.7,0-1.2-0.5-1.2-1.2c0-0.7,0.5-1.2,1.2-1.2s1.2,0.5,1.2,1.2C35.8,40.4,35.3,40.9,34.6,40.9z
				 M34.6,38.7c-0.6,0-1,0.5-1,1c0,0.6,0.5,1,1,1s1-0.5,1-1C35.6,39.1,35.2,38.7,34.6,38.7z"/>
			<path class="st3" d="M41.7,40.9c-0.7,0-1.2-0.5-1.2-1.2c0-0.7,0.5-1.2,1.2-1.2c0.7,0,1.2,0.5,1.2,1.2
				C42.9,40.4,42.4,40.9,41.7,40.9z M41.7,38.7c-0.6,0-1,0.5-1,1c0,0.6,0.5,1,1,1c0.6,0,1-0.5,1-1C42.7,39.1,42.3,38.7,41.7,38.7z"
				/>
		</g>
		<g>
			<path class="st3" d="M13.3,47.3c-0.7,0-1.2-0.5-1.2-1.2c0-0.7,0.5-1.2,1.2-1.2s1.2,0.5,1.2,1.2C14.6,46.8,14,47.3,13.3,47.3z
				 M13.3,45.1c-0.6,0-1,0.5-1,1c0,0.6,0.5,1,1,1s1-0.5,1-1C14.4,45.5,13.9,45.1,13.3,45.1z"/>
			<path class="st3" d="M20.4,47.3c-0.7,0-1.2-0.5-1.2-1.2c0-0.7,0.5-1.2,1.2-1.2c0.7,0,1.2,0.5,1.2,1.2
				C21.7,46.8,21.1,47.3,20.4,47.3z M20.4,45.1c-0.6,0-1,0.5-1,1c0,0.6,0.5,1,1,1c0.6,0,1-0.5,1-1C21.4,45.5,21,45.1,20.4,45.1z"/>
			<path class="st3" d="M27.5,47.3c-0.7,0-1.2-0.5-1.2-1.2c0-0.7,0.5-1.2,1.2-1.2s1.2,0.5,1.2,1.2C28.8,46.8,28.2,47.3,27.5,47.3z
				 M27.5,45.1c-0.6,0-1,0.5-1,1c0,0.6,0.5,1,1,1s1-0.5,1-1C28.5,45.5,28.1,45.1,27.5,45.1z"/>
			<path class="st3" d="M34.6,47.3c-0.7,0-1.2-0.5-1.2-1.2c0-0.7,0.5-1.2,1.2-1.2s1.2,0.5,1.2,1.2C35.8,46.8,35.3,47.3,34.6,47.3z
				 M34.6,45.1c-0.6,0-1,0.5-1,1c0,0.6,0.5,1,1,1s1-0.5,1-1C35.6,45.5,35.2,45.1,34.6,45.1z"/>
			<path class="st3" d="M41.7,47.3c-0.7,0-1.2-0.5-1.2-1.2c0-0.7,0.5-1.2,1.2-1.2c0.7,0,1.2,0.5,1.2,1.2
				C42.9,46.8,42.4,47.3,41.7,47.3z M41.7,45.1c-0.6,0-1,0.5-1,1c0,0.6,0.5,1,1,1c0.6,0,1-0.5,1-1C42.7,45.5,42.3,45.1,41.7,45.1z"
				/>
		</g>
		<g>
			<path class="st3" d="M13.3,53.7c-0.7,0-1.2-0.5-1.2-1.2c0-0.7,0.5-1.2,1.2-1.2s1.2,0.5,1.2,1.2C14.6,53.2,14,53.7,13.3,53.7z
				 M13.3,51.5c-0.6,0-1,0.5-1,1c0,0.6,0.5,1,1,1s1-0.5,1-1C14.4,51.9,13.9,51.5,13.3,51.5z"/>
			<path class="st3" d="M20.4,53.7c-0.7,0-1.2-0.5-1.2-1.2c0-0.7,0.5-1.2,1.2-1.2c0.7,0,1.2,0.5,1.2,1.2
				C21.7,53.2,21.1,53.7,20.4,53.7z M20.4,51.5c-0.6,0-1,0.5-1,1c0,0.6,0.5,1,1,1c0.6,0,1-0.5,1-1C21.4,51.9,21,51.5,20.4,51.5z"/>
			<path class="st3" d="M27.5,53.7c-0.7,0-1.2-0.5-1.2-1.2c0-0.7,0.5-1.2,1.2-1.2s1.2,0.5,1.2,1.2C28.8,53.2,28.2,53.7,27.5,53.7z
				 M27.5,51.5c-0.6,0-1,0.5-1,1c0,0.6,0.5,1,1,1s1-0.5,1-1C28.5,51.9,28.1,51.5,27.5,51.5z"/>
			<path class="st3" d="M34.6,53.7c-0.7,0-1.2-0.5-1.2-1.2c0-0.7,0.5-1.2,1.2-1.2s1.2,0.5,1.2,1.2C35.8,53.2,35.3,53.7,34.6,53.7z
				 M34.6,51.5c-0.6,0-1,0.5-1,1c0,0.6,0.5,1,1,1s1-0.5,1-1C35.6,51.9,35.2,51.5,34.6,51.5z"/>
			<path class="st3" d="M41.7,53.7c-0.7,0-1.2-0.5-1.2-1.2c0-0.7,0.5-1.2,1.2-1.2c0.7,0,1.2,0.5,1.2,1.2
				C42.9,53.2,42.4,53.7,41.7,53.7z M41.7,51.5c-0.6,0-1,0.5-1,1c0,0.6,0.5,1,1,1c0.6,0,1-0.5,1-1C42.7,51.9,42.3,51.5,41.7,51.5z"
				/>
		</g>
		<g>
			<path class="st3" d="M13.3,60.1c-0.7,0-1.2-0.5-1.2-1.2c0-0.7,0.5-1.2,1.2-1.2s1.2,0.5,1.2,1.2C14.6,59.6,14,60.1,13.3,60.1z
				 M13.3,57.9c-0.6,0-1,0.5-1,1c0,0.6,0.5,1,1,1s1-0.5,1-1C14.4,58.3,13.9,57.9,13.3,57.9z"/>
			<path class="st3" d="M20.4,60.1c-0.7,0-1.2-0.5-1.2-1.2c0-0.7,0.5-1.2,1.2-1.2c0.7,0,1.2,0.5,1.2,1.2
				C21.7,59.6,21.1,60.1,20.4,60.1z M20.4,57.9c-0.6,0-1,0.5-1,1c0,0.6,0.5,1,1,1c0.6,0,1-0.5,1-1C21.4,58.3,21,57.9,20.4,57.9z"/>
			<path class="st3" d="M27.5,60.1c-0.7,0-1.2-0.5-1.2-1.2c0-0.7,0.5-1.2,1.2-1.2s1.2,0.5,1.2,1.2C28.8,59.6,28.2,60.1,27.5,60.1z
				 M27.5,57.9c-0.6,0-1,0.5-1,1c0,0.6,0.5,1,1,1s1-0.5,1-1C28.5,58.3,28.1,57.9,27.5,57.9z"/>
			<path class="st3" d="M34.6,60.1c-0.7,0-1.2-0.5-1.2-1.2c0-0.7,0.5-1.2,1.2-1.2s1.2,0.5,1.2,1.2C35.8,59.6,35.3,60.1,34.6,60.1z
				 M34.6,57.9c-0.6,0-1,0.5-1,1c0,0.6,0.5,1,1,1s1-0.5,1-1C35.6,58.3,35.2,57.9,34.6,57.9z"/>
			<path class="st3" d="M41.7,60.1c-0.7,0-1.2-0.5-1.2-1.2c0-0.7,0.5-1.2,1.2-1.2c0.7,0,1.2,0.5,1.2,1.2
				C42.9,59.6,42.4,60.1,41.7,60.1z M41.7,57.9c-0.6,0-1,0.5-1,1c0,0.6,0.5,1,1,1c0.6,0,1-0.5,1-1C42.7,58.3,42.3,57.9,41.7,57.9z"
				/>
		</g>
	</g>
</g>
</svg>
