<?xml version="1.0" encoding="utf-8"?>
<!-- Generator: Adobe Illustrator 22.0.1, SVG Export Plug-In . SVG Version: 6.00 Build 0)  -->
<svg version="1.1" id="圖層_1" xmlns="http://www.w3.org/2000/svg" xmlns:xlink="http://www.w3.org/1999/xlink" x="0px" y="0px"
	 viewBox="0 0 120 80" style="enable-background:new 0 0 120 80;" xml:space="preserve">
<style type="text/css">
	.st0{fill:#2F5068;}
</style>
<g>
	<g>
		<path class="st0" d="M0,40.8c8.7,6,19.2,8.8,29.5,8.6c5.1-0.2,10.2-1.2,15.2-2.6c5-1.4,9.9-3.2,15-4.9c5.1-1.6,10.2-3.1,15.6-3.8
			c2.7-0.3,5.4-0.4,8.1-0.4c2.7,0,5.3,0.2,8,0.4c5.3,0.5,10.6,1.4,15.7,3.4c5,2,9.6,5,13,9c-4-3.5-8.6-6.1-13.5-7.6
			c-5-1.5-10.1-2.1-15.3-2.4c-1.3,0-2.6-0.1-3.9-0.1c-1.3,0-2.6,0-3.9,0c-2.6,0-5.1,0.2-7.7,0.5c-5.1,0.7-10.1,2.2-15.1,3.8
			c-5,1.6-10,3.4-15.1,4.7c-5.2,1.3-10.5,2.3-15.9,2.2C18.7,51.5,8,47.8,0,40.8z"/>
	</g>
	<g>
		<path class="st0" d="M15,43.8c7-0.6,14-1.4,20.9-2.5c3.4-0.6,6.9-1.1,10.3-1.9c3.4-0.7,6.8-1.6,10.1-2.7c3.2-1,6.7-2.3,10.2-3.1
			c3.5-0.7,7.1-1.1,10.7-1.2c3.6,0,7.2,0.3,10.7,0.8c3.5,0.6,7,1.5,10.3,2.8c-3.5-0.7-6.9-1.2-10.4-1.4c-3.5-0.2-7-0.2-10.4,0
			c-3.4,0.3-6.9,0.8-10.2,1.6c-3.4,0.8-6.5,2-9.9,3.2c-6.8,2.1-13.9,3.4-21,4.1C29.2,44.3,22.1,44.4,15,43.8z"/>
	</g>
	<g>
		<path class="st0" d="M70.5,46.7c3.7-1.3,7.6-2.2,11.4-2.8c1.9-0.3,3.9-0.5,5.9-0.7c2-0.1,4-0.1,6,0.1c4.1,0.5,7.9,1.8,11.5,3.4
			c3.6,1.6,7.1,3.6,10.1,6.2c-3.7-1.5-7.3-2.8-10.9-4c-3.6-1.1-7.4-2.1-11-2.6c-3.7-0.4-7.5-0.2-11.4-0.1
			C78.3,46.4,74.4,46.6,70.5,46.7z"/>
	</g>
	<g>
		<path class="st0" d="M8.8,41.5c-0.6-1.9-0.6-4.1,0.1-6.1c0.7-2,2.2-3.8,4.1-4.9c1.9-1.1,3.9-1.8,6.1-2.1c0.5-0.1,1.1-0.1,1.7-0.1
			l0.4,0c0.1,0,0.3,0,0.5,0l0.8,0.1c0.1,0,0.3,0,0,0.1c-0.1,0-0.3,0.2-0.2,0.1l0.1-0.1l0.3-0.2l1.1-0.9c0.4-0.3,0.8-0.7,1.3-1
			c0.2-0.2,0.5-0.3,0.8-0.4c0.3-0.2,0.7-0.3,1.2-0.4c0.5-0.1,1,0,1.6,0.2c0.3,0.1,0.5,0.3,0.7,0.5c0.2,0.2,0.3,0.3,0.4,0.5
			c0.2,0.4,0.4,0.7,0.5,1.1c0,0.2,0.1,0.4,0.1,0.6l0,0.3c0,0,0,0,0-0.1c0-0.1-0.1-0.2-0.3-0.4c-0.2-0.2-0.4-0.2-0.6-0.3
			c-0.1,0-0.2,0-0.3,0c-0.1,0,0,0,0.1,0l0.3-0.1c0.5-0.2,1-0.4,1.9-0.4c0.4,0,0.9,0,1.3,0.2c0.4,0.2,0.8,0.5,1,0.8
			c0.5,0.5,0.7,0.9,0.8,1c0,0,0.1,0.1,0.5,0.1c0.3,0,0.9-0.1,1.4-0.2c0.6-0.1,1.2-0.1,1.9,0.1c0.4,0.1,0.8,0.3,1.1,0.6
			c0.2,0.2,0.3,0.3,0.4,0.5c0,0.1,0.1,0.3,0.2,0.4c0,0.1,0.1,0.3,0.1,0.4c0,0.4,0,0.6-0.1,0.9c0,0.3-0.1,0.5-0.1,0.8
			c-0.1,0.5-0.2,1.1-0.5,1.6c-0.5,1-1,1.8-1.5,2.6l0,0l-0.3,0.6l0,0.1l0,0c-0.6,0.7-1.2,1.5-1.8,2.2c0.4-0.9,0.8-1.7,1.2-2.6l0,0.1
			l0.1-0.6l0,0c0.3-1,0.7-1.9,0.9-2.8c0.1-0.4,0.1-0.8,0.2-1.3c0-0.2,0-0.5,0-0.7c0-0.2,0-0.5,0-0.6c0,0,0,0,0,0c0,0,0,0.1,0,0.1
			c0,0,0,0-0.1,0c0,0-0.1,0-0.2,0c-0.3,0-0.7,0-1.1,0.1c-0.4,0.1-0.8,0.2-1.5,0.4c-0.3,0-0.7,0.1-1.1,0c-0.4-0.1-0.9-0.3-1.2-0.5
			c-0.7-0.5-0.9-1-1.2-1.2c-0.2-0.2-0.1-0.1-0.3-0.1c-0.2,0-0.5,0.2-1,0.3l-0.4,0.1c-0.1,0-0.2,0.1-0.6,0.2c-0.2,0-0.4,0-0.7,0
			c-0.3,0-0.6-0.2-0.9-0.4c-0.3-0.2-0.4-0.5-0.5-0.7c-0.1-0.2-0.1-0.4-0.1-0.5c0-0.2-0.1-0.4-0.1-0.4c0,0,0-0.1,0-0.2
			c0-0.1-0.1-0.2-0.1-0.3c0,0-0.1-0.1,0,0c0,0,0.1,0.1,0.1,0.1c0.1,0,0.2,0,0.1,0c0,0-0.1,0-0.2,0.1c-0.2,0.1-0.3,0.2-0.5,0.3
			c-0.4,0.2-0.7,0.5-1.1,0.8l-1.2,0.9l-0.3,0.2L23.9,31c0,0-0.3,0.2-0.5,0.3c-0.8,0.2-1.1,0.1-1.5,0l-0.7-0.2c0,0-0.1,0-0.2,0
			l-0.3,0c-0.4,0-0.9-0.1-1.3,0c-1.8,0.1-3.6,0.6-5.3,1.3c-1.6,0.7-3,1.9-3.9,3.5C9.3,37.5,8.8,39.5,8.8,41.5z"/>
	</g>
</g>
</svg>
