<svg width="160" height="81" viewBox="0 0 160 81" fill="none" xmlns="http://www.w3.org/2000/svg">
<g clip-path="url(#clip0_192_326)">
<path d="M71.7921 32.7768H32.2845V16.4157C32.2845 15.376 33.1601 14.5005 34.1997 14.5005H69.9316C70.9713 14.5005 71.8468 15.376 71.8468 16.4157V32.7768H71.7921Z" stroke="#30526B" stroke-width="3" stroke-miterlimit="10"/>
<path d="M127.88 32.7768H88.3174V16.4157C88.3174 15.376 89.1929 14.5005 90.2326 14.5005H125.964C127.004 14.5005 127.88 15.376 127.88 16.4157V32.7768Z" stroke="#30526B" stroke-width="3" stroke-miterlimit="10"/>
<path d="M31.6279 1.42261C26.8126 1.42261 22.9275 4.54162 22.9275 8.42671V32.7769" stroke="#30526B" stroke-width="3" stroke-miterlimit="10"/>
<path d="M137.073 8.42671C137.073 4.54162 133.187 1.42261 128.372 1.42261" stroke="#30526B" stroke-width="3" stroke-miterlimit="10"/>
<path d="M23.9125 32.7769C16.58 32.7769 10.6703 38.1394 10.6703 44.7604V60.7933V70.1503V72.8863C10.6703 76.5525 13.9535 79.5074 17.948 79.5074H36.7715C40.8208 79.5074 44.0493 76.5525 44.0493 72.8863V66.3747H115.896V72.8863C115.896 76.5525 119.179 79.5074 123.174 79.5074H141.997C146.047 79.5074 149.275 76.5525 149.275 72.8863V70.1503V60.7933V44.7604C149.275 38.1394 143.365 32.7769 136.033 32.7769" stroke="#30526B" stroke-width="3" stroke-miterlimit="10"/>
<path d="M129.412 32.7769H30.643" stroke="#30526B" stroke-width="3" stroke-miterlimit="10"/>
<path d="M39.4528 1.42261H120.602" stroke="#30526B" stroke-width="3" stroke-miterlimit="10"/>
<path d="M137.073 8.42676V32.777" stroke="#30526B" stroke-width="3" stroke-miterlimit="10"/>
<path d="M10.6703 49.1929H149.33" stroke="#30526B" stroke-width="3" stroke-miterlimit="10"/>
</g>
<defs>
<clipPath id="clip0_192_326">
<rect width="160" height="80.9302" fill="white"/>
</clipPath>
</defs>
</svg>
