<?xml version="1.0" encoding="utf-8"?>
<!-- Generator: Adobe Illustrator 22.0.1, SVG Export Plug-In . SVG Version: 6.00 Build 0)  -->
<svg version="1.1" id="圖層_2_1_" xmlns="http://www.w3.org/2000/svg" xmlns:xlink="http://www.w3.org/1999/xlink" x="0px"
	 y="0px" viewBox="0 0 120 80" style="enable-background:new 0 0 120 80;" xml:space="preserve">
<style type="text/css">
	.st0{fill:none;stroke:#B6C1C4;stroke-width:2.5;stroke-linecap:round;stroke-linejoin:round;stroke-miterlimit:10;}
</style>
<g>
	<g>
		<path class="st0" d="M89.1,24.2L89.1,24.2L50.9,45c-2,1.1-4.3,1.1-6.3,0L6.5,24.3c-0.1,0-0.1-0.1-0.1-0.1c-0.1-0.1,0-0.3,0.1-0.4
			L45.2,7.4c1.6-0.7,3.5-0.7,5.1,0L89,23.8C89.2,23.8,89.2,24,89.1,24.2z"/>
		<path id="XMLID_10_" class="st0" d="M61.9,57.4l-10.5,5.8c-2.3,1.3-5.1,1.3-7.4,0L5.8,42.1l-0.1-0.3C3.8,36,4.4,30,6.4,24.2
			l0.1,0.1L44.6,45c2,1.1,4.3,1.1,6.3,0L89,24.3c0.1,0,0.1-0.1,0.1-0.1c1.5,4.4,2,9.2,1.4,13.7"/>
		<path class="st0" d="M6.5,24c0,0.1,0,0.1-0.1,0.2"/>
		<path class="st0" d="M89.1,24.2c0-0.1,0-0.1-0.1-0.2"/>
		<g>
			<g>
				<path class="st0" d="M23.6,24c0,0,4.4-1.9,5.1,3.2"/>
				<path class="st0" d="M33.8,24c0,0-4.4-1.9-5.1,3.2"/>
				<line class="st0" x1="28.7" y1="26.5" x2="28.7" y2="22.4"/>
			</g>
			<g>
				<path class="st0" d="M44,14.5c0,0,4.4-1.9,5.1,3.2"/>
				<path class="st0" d="M54.1,14.5c0,0-4.4-1.9-5.1,3.2"/>
				<line class="st0" x1="49.1" y1="17" x2="49.1" y2="12.9"/>
			</g>
			<g>
				<path class="st0" d="M40.8,31.6c0,0,4.4-1.9,5.1,3.2"/>
				<path class="st0" d="M51,31.6c0,0-4.4-1.9-5.1,3.2"/>
				<line class="st0" x1="45.9" y1="34.2" x2="45.9" y2="30"/>
			</g>
			<g>
				<path class="st0" d="M61.1,22.1c0,0,4.4-1.9,5.1,3.2"/>
				<path class="st0" d="M71.3,22.1c0,0-4.4-1.9-5.1,3.2"/>
				<line class="st0" x1="66.2" y1="24.6" x2="66.2" y2="20.5"/>
			</g>
		</g>
	</g>
	<g>
		<path class="st0" d="M114.4,48.2L114.4,48.2l-23.8,13c-1.2,0.7-2.7,0.7-3.9,0L63,48.2c0,0-0.1,0-0.1-0.1c-0.1-0.1,0-0.2,0.1-0.3
			l24.1-10.2c1-0.4,2.2-0.4,3.2,0l24.1,10.2C114.4,47.9,114.4,48.1,114.4,48.2z"/>
		<path class="st0" d="M114.6,59.1l-0.1,0.2L90.9,72.5c-1.4,0.8-3.2,0.8-4.6,0L62.5,59.3l-0.1-0.2c-1.2-3.6-0.8-7.4,0.4-11
			c0,0,0,0,0.1,0.1l23.7,12.9c1.2,0.7,2.7,0.7,3.9,0l23.7-12.9c0,0,0.1,0,0.1-0.1C115.6,51.8,115.9,55.5,114.6,59.1z"/>
		<path class="st0" d="M62.9,48L62.9,48"/>
		<path class="st0" d="M114.4,48.2L114.4,48.2"/>
		<g>
			<g>
				<path class="st0" d="M73.6,48c0,0,2.8-1.2,3.2,2"/>
				<path class="st0" d="M79.9,48c0,0-2.8-1.2-3.2,2"/>
				<line class="st0" x1="76.8" y1="49.6" x2="76.8" y2="47.1"/>
			</g>
			<g>
				<path class="st0" d="M86.3,42.1c0,0,2.8-1.2,3.2,2"/>
				<path class="st0" d="M92.6,42.1c0,0-2.8-1.2-3.2,2"/>
				<line class="st0" x1="89.4" y1="43.7" x2="89.4" y2="41.1"/>
			</g>
			<g>
				<path class="st0" d="M84.3,52.8c0,0,2.8-1.2,3.2,2"/>
				<path class="st0" d="M90.6,52.8c0,0-2.8-1.2-3.2,2"/>
				<line class="st0" x1="87.5" y1="54.4" x2="87.5" y2="51.8"/>
			</g>
			<g>
				<path class="st0" d="M97,46.9c0,0,2.8-1.2,3.2,2"/>
				<path class="st0" d="M103.3,46.9c0,0-2.8-1.2-3.2,2"/>
				<line class="st0" x1="100.1" y1="48.4" x2="100.1" y2="45.9"/>
			</g>
		</g>
	</g>
</g>
</svg>
