<?xml version="1.0" encoding="utf-8"?>
<!-- Generator: Adobe Illustrator 16.0.0, SVG Export Plug-In . SVG Version: 6.00 Build 0)  -->
<!DOCTYPE svg PUBLIC "-//W3C//DTD SVG 1.1//EN" "http://www.w3.org/Graphics/SVG/1.1/DTD/svg11.dtd">
<svg version="1.1" id="圖層_1" xmlns="http://www.w3.org/2000/svg" xmlns:xlink="http://www.w3.org/1999/xlink" x="0px" y="0px"
	 width="166px" height="197px" viewBox="146 26 166 197" enable-background="new 146 26 166 197" xml:space="preserve">
<g>
	<g>
		<g>
			<g>
				<path fill="#606060" d="M256.404,36.619h-9.33h-2.099h-2.333l-2.799,9.796l-2.565-9.796h-9.563h-2.099h-2.333l-2.099,7.93
					l-2.099-7.93h-9.33h-2.099h-2.099l-48.514,177.728h4.432h13.528h4.432h14.927h4.431l28.688-105.424l28.688,105.424h11.662
					L233.08,87.698l3.266-12.128l37.785,138.777h11.428L242.177,54.345l3.731-13.761l47.348,173.763h11.429L256.404,36.619z
					 M226.783,40.35l7.463,27.289l-3.266,12.128l-7.463-27.289L226.783,40.35z M162.875,208.982l45.948-168.399l6.764,24.957
					l-39.184,143.442H162.875z M180.835,208.982L217.687,73.47l7.463,27.289l-29.388,108.223H180.835z"/>
			</g>
			<g>
				<path fill="#606060" d="M305.851,215.047h-13.294v-0.467L245.908,43.849l-2.799,10.496l43.85,160.702h-13.295l-0.233-0.467
					L236.346,78.835l-2.332,8.863l34.752,127.349h-13.295l-0.232-0.467L227.25,112.188l-27.989,102.859h-43.382l48.98-179.361
					h14.927l1.399,5.365l1.399-5.365h15.394l2.1,7.463l2.099-7.463h14.927l0.233,0.7L305.851,215.047z M293.955,213.414h9.797
					L255.705,37.551h-9.797L293.955,213.414z M274.83,213.414h9.796L241.244,54.345l4.664-16.793h-2.565l-3.265,12.362
					l-3.266-12.362h-9.797l8.164,30.088l-4.199,15.394l-8.396-30.554l3.965-14.928h-2.566l-2.799,10.263l-2.799-10.263h-9.796
					l7.697,28.222v0.233l-39.184,143.909h-15.394l47.114-172.364h-2.565L158.21,213.414h39.651l29.389-107.757l29.387,107.757h9.797
					L232.147,87.698l4.198-15.394L274.83,213.414z M164.042,208.282h11.895L214.654,65.54l-5.831-21.691L164.042,208.282z
					 M224.45,52.479l6.53,24.023l2.333-8.863l-6.53-24.023L224.45,52.479z M196.229,209.915h-16.56l38.018-139.71l8.396,30.554
					v0.233L196.229,209.915z M182.001,208.282h13.062l29.155-107.29l-6.531-24.024L182.001,208.282z"/>
			</g>
		</g>
	</g>
</g>
</svg>
